M48
METRIC,LZ,000.000
;FILE_FORMAT=3:3
;TYPE=PLATED
;Layer: PTH_Through
;EasyEDA v6.5.3, 2022-04-04 11:44:29
;441a04c8791b4462941eed85b5e579c0,ea473c994f494bc6b3a27bf06e4933c6,10
;Gerber Generator version 0.2
;Holesize 1 = 0.306 mm
T01C0.306
;Holesize 2 = 0.850 mm
T02C0.850
;Holesize 3 = 1.200 mm
T03C1.200
%
G05
G90
T01
X027432Y-022413
X011811Y-025574
X021192Y-018978
X028268Y-015922
X027913Y-017101
X006980Y-007134
X011331Y-022418
X010061Y-017747
X023827Y-018729
X014785Y-017568
T02
X036350Y-003250
X036350Y-005750
X036350Y-008250
X036350Y-010750
X036350Y-016250
X036350Y-018750
X036350Y-021250
X036350Y-023750
T03
X025911Y-007134G85X025905Y-007134
X023371Y-007134G85X023365Y-007134
X020831Y-007134G85X020825Y-007134
M30
