G04 Layer: TopSolderMaskLayer*
G04 EasyEDA v6.5.3, 2022-04-04 11:44:29*
G04 441a04c8791b4462941eed85b5e579c0,ea473c994f494bc6b3a27bf06e4933c6,10*
G04 Gerber Generator version 0.2*
G04 Scale: 100 percent, Rotated: No, Reflected: No *
G04 Dimensions in millimeters *
G04 leading zeros omitted , absolute positions ,4 integer and 5 decimal *
%FSLAX45Y45*%
%MOMM*%

%ADD33C,0.6700*%
%ADD34C,1.6016*%
%ADD35C,1.9515*%

%LPD*%
D33*
X2201415Y-2190495D02*
G01*
X2339596Y-2190495D01*
X2201415Y-2063495D02*
G01*
X2339596Y-2063495D01*
X2201415Y-1936495D02*
G01*
X2339596Y-1936495D01*
X2201415Y-1809495D02*
G01*
X2339596Y-1809495D01*
X1660395Y-2190495D02*
G01*
X1798576Y-2190495D01*
X1660395Y-2063495D02*
G01*
X1798576Y-2063495D01*
X1660395Y-1936495D02*
G01*
X1798576Y-1936495D01*
X1660395Y-1809495D02*
G01*
X1798576Y-1809495D01*
D34*
G01*
X3634993Y-324993D03*
G01*
X3634993Y-575005D03*
G01*
X3634993Y-824992D03*
G01*
X3634993Y-1075004D03*
D35*
G01*
X2590800Y-713409D03*
G01*
X2336800Y-713409D03*
G01*
X2082800Y-713409D03*
D34*
G01*
X3634993Y-1624990D03*
G01*
X3634993Y-1875002D03*
G01*
X3634993Y-2124989D03*
G01*
X3634993Y-2375001D03*
G36*
X2700527Y-2203450D02*
G01*
X2700527Y-2038350D01*
X2836672Y-2038350D01*
X2836672Y-2203450D01*
G37*
G36*
X2497327Y-2203450D02*
G01*
X2497327Y-2038350D01*
X2633472Y-2038350D01*
X2633472Y-2203450D01*
G37*
G36*
X2700527Y-1962150D02*
G01*
X2700527Y-1797050D01*
X2836672Y-1797050D01*
X2836672Y-1962150D01*
G37*
G36*
X2497327Y-1962150D02*
G01*
X2497327Y-1797050D01*
X2633472Y-1797050D01*
X2633472Y-1962150D01*
G37*
G36*
X1168907Y-2199386D02*
G01*
X1168907Y-2042413D01*
X1294892Y-2042413D01*
X1294892Y-2199386D01*
G37*
G36*
X1372107Y-2199386D02*
G01*
X1372107Y-2042413D01*
X1498092Y-2042413D01*
X1498092Y-2199386D01*
G37*
G36*
X1168907Y-1958086D02*
G01*
X1168907Y-1801113D01*
X1294892Y-1801113D01*
X1294892Y-1958086D01*
G37*
G36*
X1372107Y-1958086D02*
G01*
X1372107Y-1801113D01*
X1498092Y-1801113D01*
X1498092Y-1958086D01*
G37*
M02*
