G04 Layer: BottomLayer*
G04 EasyEDA v6.5.3, 2022-04-04 11:44:29*
G04 441a04c8791b4462941eed85b5e579c0,ea473c994f494bc6b3a27bf06e4933c6,10*
G04 Gerber Generator version 0.2*
G04 Scale: 100 percent, Rotated: No, Reflected: No *
G04 Dimensions in millimeters *
G04 leading zeros omitted , absolute positions ,4 integer and 5 decimal *
%FSLAX45Y45*%
%MOMM*%

%ADD10C,0.2540*%
%ADD12C,0.6100*%
%ADD15C,1.5000*%
%ADD16C,1.8499*%
%ADD17C,0.7000*%

%LPD*%
D10*
X2743200Y-3263900D02*
G01*
X2743200Y-2241321D01*
X1249629Y-3021177D02*
G01*
X1249629Y-2803245D01*
X1181100Y-2557449D02*
G01*
X1181100Y-2734716D01*
X1249629Y-2803245D01*
X2022093Y-1897837D02*
G01*
X2022093Y-1970201D01*
X1752904Y-1555495D02*
G01*
X2022093Y-1824685D01*
X2022093Y-1897837D01*
X2119172Y-1897837D02*
G01*
X2022093Y-1897837D01*
X1175994Y-874420D02*
G01*
X1175994Y-1358900D01*
X1118996Y-817422D02*
G01*
X1175994Y-874420D01*
X1175994Y-874420D02*
G01*
X1470736Y-579678D01*
X2203068Y-579678D01*
X2336800Y-713409D01*
X889000Y-299897D02*
G01*
X681075Y-299897D01*
X355600Y-449605D02*
G01*
X531368Y-449605D01*
X681075Y-299897D01*
X2235200Y-1028700D02*
G01*
X2321128Y-1028700D01*
X2336800Y-1013002D02*
G01*
X2352497Y-1028700D01*
X2336800Y-713409D02*
G01*
X2336800Y-1013002D01*
X2321128Y-1028700D02*
G01*
X2321128Y-1028674D01*
X2336800Y-1013002D01*
X2946400Y-1380972D02*
G01*
X2946400Y-1295044D01*
X2946400Y-1295044D02*
G01*
X2651404Y-1295044D01*
X2626359Y-1270000D01*
X2022093Y-3770172D02*
G01*
X2022093Y-3637254D01*
X2518003Y-3378200D02*
G01*
X2258949Y-3637254D01*
X2022093Y-3637254D01*
X2518003Y-3378200D02*
G01*
X2615006Y-3378200D01*
X2514600Y-3378200D02*
G01*
X2518003Y-3378200D01*
X2743200Y-3378200D02*
G01*
X2743200Y-3505200D01*
X2743200Y-3263900D02*
G01*
X2743200Y-3378200D01*
X2743200Y-3378200D02*
G01*
X2615006Y-3378200D01*
X1118996Y-817422D02*
G01*
X1118996Y-740968D01*
X1118996Y-893876D02*
G01*
X1118996Y-817422D01*
X889000Y-299897D02*
G01*
X1096924Y-299897D01*
X1096924Y-299897D02*
G01*
X1096924Y-718896D01*
X1118996Y-740968D01*
X1249629Y-3021177D02*
G01*
X1031697Y-3021177D01*
X213105Y-3441674D02*
G01*
X611200Y-3441674D01*
X1031697Y-3021177D01*
X2438400Y-1028700D02*
G01*
X2438400Y-1129106D01*
X2626359Y-1270000D02*
G01*
X2485466Y-1129106D01*
X2438400Y-1129106D01*
X2438400Y-1028700D02*
G01*
X2352497Y-1028700D01*
X659003Y-769594D02*
G01*
X697992Y-730605D01*
X697992Y-713409D01*
X659003Y-784225D02*
G01*
X659003Y-769594D01*
X659003Y-769594D02*
G01*
X483514Y-769594D01*
X355600Y-769594D02*
G01*
X483514Y-769594D01*
X2626359Y-1651000D02*
G01*
X2732176Y-1651000D01*
X2791307Y-1710131D01*
X2946400Y-1584172D02*
G01*
X2834893Y-1584172D01*
X2826816Y-1592249D01*
X2032000Y-1129106D02*
G01*
X2045157Y-1129106D01*
X2567050Y-1651000D01*
X2626359Y-1651000D01*
X659003Y-827506D02*
G01*
X659003Y-784225D01*
X659003Y-827506D02*
G01*
X659003Y-893876D01*
X2032000Y-1028700D02*
G01*
X2032000Y-1129106D01*
X2082800Y-713409D02*
G01*
X2032000Y-764209D01*
X2032000Y-1028700D01*
X1133094Y-1970201D02*
G01*
X1133094Y-2241829D01*
X1006094Y-1970201D02*
G01*
X1006094Y-1774748D01*
X752094Y-1970201D02*
G01*
X752094Y-2103094D01*
X752094Y-2103094D02*
G01*
X960018Y-2311019D01*
X1944674Y-2311019D01*
X2382748Y-1872945D01*
X625094Y-1970201D02*
G01*
X625094Y-1837283D01*
X625094Y-1837283D02*
G01*
X749935Y-1712442D01*
X1434134Y-1712442D01*
X1478534Y-1756841D01*
X1752904Y-1460500D02*
G01*
X1830806Y-1460500D01*
X2021840Y-1651000D02*
G01*
X1975180Y-1651000D01*
X1830806Y-1506626D01*
X1830806Y-1460500D01*
X1768094Y-2103094D02*
G01*
X1768271Y-2103272D01*
X2084882Y-2103272D01*
X2177745Y-2010410D01*
X2177745Y-1625066D01*
X2076678Y-1524000D01*
X2021840Y-1524000D01*
X1768094Y-1970201D02*
G01*
X1768094Y-2103094D01*
X2021840Y-1397000D02*
G01*
X2021840Y-1524000D01*
X2021840Y-1270000D02*
G01*
X1728698Y-1270000D01*
X1641094Y-1357604D01*
X1641094Y-1970201D01*
X1514094Y-1970201D02*
G01*
X1514094Y-1837283D01*
X1472895Y-1555495D02*
G01*
X1550822Y-1555495D01*
X1550822Y-1555495D02*
G01*
X1550822Y-1800555D01*
X1514094Y-1837283D01*
X2626359Y-1524000D02*
G01*
X2667660Y-1524000D01*
X2794482Y-1650822D01*
X2820263Y-1650822D01*
X3520313Y-2350871D01*
X3634993Y-2350871D01*
X3634993Y-2350871D02*
G01*
X3741369Y-2244496D01*
X3741369Y-1181379D01*
X3634993Y-1075004D01*
X3634993Y-2375001D02*
G01*
X3634993Y-2350871D01*
X3524808Y-1467053D02*
G01*
X3524808Y-935177D01*
X3634993Y-824992D01*
X3634993Y-2124989D02*
G01*
X3524808Y-2014804D01*
X3524808Y-1467053D01*
X2626359Y-1397000D02*
G01*
X2694381Y-1397000D01*
X2764434Y-1467053D01*
X3524808Y-1467053D01*
X2743174Y-3746525D02*
G01*
X2593822Y-3746525D01*
X2514600Y-3667302D01*
X2514600Y-3581400D02*
G01*
X2514600Y-3667302D01*
X1768094Y-3770172D02*
G01*
X1768094Y-3903090D01*
X1768094Y-3903090D02*
G01*
X1768373Y-3903370D01*
X2278532Y-3903370D01*
X2514600Y-3667302D01*
X2641600Y-1028700D02*
G01*
X2641600Y-928293D01*
X2590800Y-713409D02*
G01*
X2590800Y-877493D01*
X2641600Y-928293D01*
X1895094Y-2996437D02*
G01*
X2715590Y-2175941D01*
X2768828Y-2175941D01*
X2946400Y-2353513D01*
X2946400Y-3263900D01*
X1895094Y-3770172D02*
G01*
X1895094Y-2996437D01*
X1895094Y-2996437D02*
G01*
X1397533Y-2498877D01*
X698500Y-2498877D01*
X295503Y-2095880D01*
X295503Y-1820697D01*
X856005Y-1260195D01*
X856005Y-1260195D02*
G01*
X856005Y-1230985D01*
X856005Y-1358900D02*
G01*
X856005Y-1294942D01*
X856005Y-1294942D02*
G01*
X856005Y-1260195D01*
X1472895Y-1365504D02*
G01*
X1394993Y-1365504D01*
X2946400Y-3505200D02*
G01*
X2946400Y-3645103D01*
X2946374Y-3645103D01*
X2946400Y-3263900D02*
G01*
X2946400Y-3505200D01*
X2946374Y-3746525D02*
G01*
X2946374Y-3645103D01*
X889000Y-893876D02*
G01*
X889000Y-1197990D01*
X856005Y-1230985D01*
X856005Y-1358900D02*
G01*
X963929Y-1358900D01*
X1394993Y-1365504D02*
G01*
X1273505Y-1486992D01*
X1065047Y-1486992D01*
X963929Y-1385874D01*
X963929Y-1358900D01*
D17*
X1946841Y-1651000D02*
G01*
X2096841Y-1651000D01*
X1946841Y-1524000D02*
G01*
X2096841Y-1524000D01*
X1946841Y-1397000D02*
G01*
X2096841Y-1397000D01*
X1946841Y-1270000D02*
G01*
X2096841Y-1270000D01*
X2551358Y-1651000D02*
G01*
X2701361Y-1651000D01*
X2551358Y-1524000D02*
G01*
X2701361Y-1524000D01*
X2551358Y-1397000D02*
G01*
X2701361Y-1397000D01*
X2551358Y-1270000D02*
G01*
X2701361Y-1270000D01*
G36*
X775990Y-1458899D02*
G01*
X936010Y-1458899D01*
X936010Y-1258900D01*
X775990Y-1258900D01*
G37*
G36*
X1095989Y-1458899D02*
G01*
X1256009Y-1458899D01*
X1256009Y-1258900D01*
X1095989Y-1258900D01*
G37*
G36*
X255600Y-369590D02*
G01*
X255600Y-529610D01*
X455599Y-529610D01*
X455599Y-369590D01*
G37*
G36*
X255600Y-689589D02*
G01*
X255600Y-849609D01*
X455599Y-849609D01*
X455599Y-689589D01*
G37*
G36*
X2699600Y-956200D02*
G01*
X2583599Y-956200D01*
X2583599Y-1101199D01*
X2699600Y-1101199D01*
G37*
G36*
X2496400Y-956200D02*
G01*
X2380399Y-956200D01*
X2380399Y-1101199D01*
X2496400Y-1101199D01*
G37*
G36*
X1973999Y-1101199D02*
G01*
X2090000Y-1101199D01*
X2090000Y-956200D01*
X1973999Y-956200D01*
G37*
G36*
X2177199Y-1101199D02*
G01*
X2293200Y-1101199D01*
X2293200Y-956200D01*
X2177199Y-956200D01*
G37*
G36*
X2873900Y-1322981D02*
G01*
X2873900Y-1438983D01*
X3018899Y-1438983D01*
X3018899Y-1322981D01*
G37*
G36*
X2873900Y-1526181D02*
G01*
X2873900Y-1642183D01*
X3018899Y-1642183D01*
X3018899Y-1526181D01*
G37*
G36*
X2442100Y-3320199D02*
G01*
X2442100Y-3436200D01*
X2587099Y-3436200D01*
X2587099Y-3320199D01*
G37*
G36*
X2442100Y-3523399D02*
G01*
X2442100Y-3639400D01*
X2587099Y-3639400D01*
X2587099Y-3523399D01*
G37*
G36*
X2685199Y-3577699D02*
G01*
X2801200Y-3577699D01*
X2801200Y-3432700D01*
X2685199Y-3432700D01*
G37*
G36*
X2888399Y-3577699D02*
G01*
X3004400Y-3577699D01*
X3004400Y-3432700D01*
X2888399Y-3432700D01*
G37*
G36*
X2685199Y-3336399D02*
G01*
X2801200Y-3336399D01*
X2801200Y-3191400D01*
X2685199Y-3191400D01*
G37*
G36*
X2888399Y-3336399D02*
G01*
X3004400Y-3336399D01*
X3004400Y-3191400D01*
X2888399Y-3191400D01*
G37*
G36*
X3004388Y-3673017D02*
G01*
X2888386Y-3673017D01*
X2888386Y-3820007D01*
X3004388Y-3820007D01*
G37*
G36*
X2801188Y-3673017D02*
G01*
X2685186Y-3673017D01*
X2685186Y-3820007D01*
X2801188Y-3820007D01*
G37*
G36*
X1063995Y-768893D02*
G01*
X1063995Y-1018893D01*
X1173998Y-1018893D01*
X1173998Y-768893D01*
G37*
G36*
X833998Y-768893D02*
G01*
X833998Y-1018893D01*
X944001Y-1018893D01*
X944001Y-768893D01*
G37*
G36*
X604001Y-768893D02*
G01*
X604001Y-1018893D01*
X714004Y-1018893D01*
X714004Y-768893D01*
G37*
G36*
X709000Y-416897D02*
G01*
X1068999Y-416897D01*
X1068999Y-182897D01*
X709000Y-182897D01*
G37*
G36*
X704598Y-3875196D02*
G01*
X799599Y-3875196D01*
X799599Y-3665194D01*
X704598Y-3665194D01*
G37*
G36*
X831598Y-3875196D02*
G01*
X926599Y-3875196D01*
X926599Y-3665194D01*
X831598Y-3665194D01*
G37*
G36*
X958598Y-3875196D02*
G01*
X1053599Y-3875196D01*
X1053599Y-3665194D01*
X958598Y-3665194D01*
G37*
G36*
X1085598Y-3875196D02*
G01*
X1180599Y-3875196D01*
X1180599Y-3665194D01*
X1085598Y-3665194D01*
G37*
G36*
X1212598Y-3875196D02*
G01*
X1307599Y-3875196D01*
X1307599Y-3665194D01*
X1212598Y-3665194D01*
G37*
G36*
X1339598Y-3875196D02*
G01*
X1434599Y-3875196D01*
X1434599Y-3665194D01*
X1339598Y-3665194D01*
G37*
G36*
X1466598Y-3875196D02*
G01*
X1561599Y-3875196D01*
X1561599Y-3665194D01*
X1466598Y-3665194D01*
G37*
G36*
X1593598Y-3875196D02*
G01*
X1688599Y-3875196D01*
X1688599Y-3665194D01*
X1593598Y-3665194D01*
G37*
G36*
X1720598Y-3875196D02*
G01*
X1815599Y-3875196D01*
X1815599Y-3665194D01*
X1720598Y-3665194D01*
G37*
G36*
X1847598Y-3875196D02*
G01*
X1942599Y-3875196D01*
X1942599Y-3665194D01*
X1847598Y-3665194D01*
G37*
G36*
X1974598Y-3875196D02*
G01*
X2069599Y-3875196D01*
X2069599Y-3665194D01*
X1974598Y-3665194D01*
G37*
G36*
X108099Y-3362187D02*
G01*
X318101Y-3362187D01*
X318101Y-3267186D01*
X108099Y-3267186D01*
G37*
G36*
X108099Y-3489187D02*
G01*
X318101Y-3489187D01*
X318101Y-3394186D01*
X108099Y-3394186D01*
G37*
G36*
X323598Y-3875196D02*
G01*
X418599Y-3875196D01*
X418599Y-3665194D01*
X323598Y-3665194D01*
G37*
G36*
X450598Y-3875196D02*
G01*
X545599Y-3875196D01*
X545599Y-3665194D01*
X450598Y-3665194D01*
G37*
G36*
X577598Y-3875196D02*
G01*
X672599Y-3875196D01*
X672599Y-3665194D01*
X577598Y-3665194D01*
G37*
G36*
X108099Y-3235187D02*
G01*
X318101Y-3235187D01*
X318101Y-3140186D01*
X108099Y-3140186D01*
G37*
G36*
X108099Y-3108187D02*
G01*
X318101Y-3108187D01*
X318101Y-3013186D01*
X108099Y-3013186D01*
G37*
G36*
X108099Y-2981187D02*
G01*
X318101Y-2981187D01*
X318101Y-2886186D01*
X108099Y-2886186D01*
G37*
G36*
X108099Y-2854187D02*
G01*
X318101Y-2854187D01*
X318101Y-2759186D01*
X108099Y-2759186D01*
G37*
G36*
X108099Y-2727187D02*
G01*
X318101Y-2727187D01*
X318101Y-2632186D01*
X108099Y-2632186D01*
G37*
G36*
X108099Y-2600187D02*
G01*
X318101Y-2600187D01*
X318101Y-2505186D01*
X108099Y-2505186D01*
G37*
G36*
X108099Y-2473187D02*
G01*
X318101Y-2473187D01*
X318101Y-2378186D01*
X108099Y-2378186D01*
G37*
G36*
X108099Y-2346187D02*
G01*
X318101Y-2346187D01*
X318101Y-2251186D01*
X108099Y-2251186D01*
G37*
G36*
X323598Y-2075205D02*
G01*
X418599Y-2075205D01*
X418599Y-1865203D01*
X323598Y-1865203D01*
G37*
G36*
X450598Y-2075205D02*
G01*
X545599Y-2075205D01*
X545599Y-1865203D01*
X450598Y-1865203D01*
G37*
G36*
X577598Y-2075205D02*
G01*
X672599Y-2075205D01*
X672599Y-1865203D01*
X577598Y-1865203D01*
G37*
G36*
X704598Y-2075205D02*
G01*
X799599Y-2075205D01*
X799599Y-1865203D01*
X704598Y-1865203D01*
G37*
G36*
X831598Y-2075205D02*
G01*
X926599Y-2075205D01*
X926599Y-1865203D01*
X831598Y-1865203D01*
G37*
G36*
X958598Y-2075205D02*
G01*
X1053599Y-2075205D01*
X1053599Y-1865203D01*
X958598Y-1865203D01*
G37*
G36*
X1085598Y-2075205D02*
G01*
X1180599Y-2075205D01*
X1180599Y-1865203D01*
X1085598Y-1865203D01*
G37*
G36*
X1212598Y-2075205D02*
G01*
X1307599Y-2075205D01*
X1307599Y-1865203D01*
X1212598Y-1865203D01*
G37*
G36*
X1339598Y-2075205D02*
G01*
X1434599Y-2075205D01*
X1434599Y-1865203D01*
X1339598Y-1865203D01*
G37*
G36*
X1466598Y-2075205D02*
G01*
X1561599Y-2075205D01*
X1561599Y-1865203D01*
X1466598Y-1865203D01*
G37*
G36*
X1593598Y-2075205D02*
G01*
X1688599Y-2075205D01*
X1688599Y-1865203D01*
X1593598Y-1865203D01*
G37*
G36*
X1720598Y-2075205D02*
G01*
X1815599Y-2075205D01*
X1815599Y-1865203D01*
X1720598Y-1865203D01*
G37*
G36*
X1847598Y-2075205D02*
G01*
X1942599Y-2075205D01*
X1942599Y-1865203D01*
X1847598Y-1865203D01*
G37*
G36*
X1974598Y-2075205D02*
G01*
X2069599Y-2075205D01*
X2069599Y-1865203D01*
X1974598Y-1865203D01*
G37*
G36*
X1059621Y-3211184D02*
G01*
X1439621Y-3211184D01*
X1439621Y-2831185D01*
X1059621Y-2831185D01*
G37*
G36*
X1702899Y-1395498D02*
G01*
X1802899Y-1395498D01*
X1802899Y-1335498D01*
X1702899Y-1335498D01*
G37*
G36*
X1702899Y-1490499D02*
G01*
X1802899Y-1490499D01*
X1802899Y-1430500D01*
X1702899Y-1430500D01*
G37*
G36*
X1702899Y-1585501D02*
G01*
X1802899Y-1585501D01*
X1802899Y-1525501D01*
X1702899Y-1525501D01*
G37*
G36*
X1522900Y-1525501D02*
G01*
X1422900Y-1525501D01*
X1422900Y-1585501D01*
X1522900Y-1585501D01*
G37*
G36*
X1522900Y-1335498D02*
G01*
X1422900Y-1335498D01*
X1422900Y-1395498D01*
X1522900Y-1395498D01*
G37*
D15*
G01*
X3634993Y-324993D03*
G01*
X3634993Y-575005D03*
G01*
X3634993Y-824992D03*
G01*
X3634993Y-1075004D03*
D16*
G01*
X2590800Y-713409D03*
G01*
X2336800Y-713409D03*
G01*
X2082800Y-713409D03*
D15*
G01*
X3634993Y-1624990D03*
G01*
X3634993Y-1875002D03*
G01*
X3634993Y-2124989D03*
G01*
X3634993Y-2375001D03*
D12*
G01*
X2743200Y-2241321D03*
G01*
X1181100Y-2557449D03*
G01*
X2119172Y-1897837D03*
G01*
X2826816Y-1592249D03*
G01*
X2791307Y-1710131D03*
G01*
X697992Y-713409D03*
G01*
X1133094Y-2241829D03*
G01*
X1006094Y-1774748D03*
G01*
X2382748Y-1872945D03*
G01*
X1478534Y-1756841D03*
M02*
