G04 Layer: BottomSilkscreenLayer*
G04 EasyEDA v6.5.3, 2022-04-04 11:44:29*
G04 441a04c8791b4462941eed85b5e579c0,ea473c994f494bc6b3a27bf06e4933c6,10*
G04 Gerber Generator version 0.2*
G04 Scale: 100 percent, Rotated: No, Reflected: No *
G04 Dimensions in millimeters *
G04 leading zeros omitted , absolute positions ,4 integer and 5 decimal *
%FSLAX45Y45*%
%MOMM*%

%ADD10C,0.2540*%
%ADD27C,0.1999*%
%ADD30C,0.1524*%
%ADD31C,0.5000*%
%ADD32C,0.2032*%

%LPD*%
D30*
X1093978Y-1600707D02*
G01*
X1088644Y-1611121D01*
X1078229Y-1621536D01*
X1068070Y-1626615D01*
X1047242Y-1626615D01*
X1036828Y-1621536D01*
X1026413Y-1611121D01*
X1021079Y-1600707D01*
X1016000Y-1584960D01*
X1016000Y-1559052D01*
X1021079Y-1543557D01*
X1026413Y-1533144D01*
X1036828Y-1522729D01*
X1047242Y-1517650D01*
X1068070Y-1517650D01*
X1078229Y-1522729D01*
X1088644Y-1533144D01*
X1093978Y-1543557D01*
X1128268Y-1605787D02*
G01*
X1138681Y-1611121D01*
X1154176Y-1626615D01*
X1154176Y-1517650D01*
X316992Y-1005078D02*
G01*
X306578Y-999744D01*
X296163Y-989329D01*
X291084Y-979170D01*
X291084Y-958342D01*
X296163Y-947928D01*
X306578Y-937513D01*
X316992Y-932179D01*
X332739Y-927100D01*
X358647Y-927100D01*
X374142Y-932179D01*
X384555Y-937513D01*
X394970Y-947928D01*
X400050Y-958342D01*
X400050Y-979170D01*
X394970Y-989329D01*
X384555Y-999744D01*
X374142Y-1005078D01*
X316992Y-1044447D02*
G01*
X311912Y-1044447D01*
X301497Y-1049781D01*
X296163Y-1054862D01*
X291084Y-1065276D01*
X291084Y-1086104D01*
X296163Y-1096518D01*
X301497Y-1101597D01*
X311912Y-1106931D01*
X322326Y-1106931D01*
X332739Y-1101597D01*
X348234Y-1091184D01*
X400050Y-1039368D01*
X400050Y-1112012D01*
X2919222Y-977392D02*
G01*
X2924556Y-966978D01*
X2934970Y-956563D01*
X2945129Y-951484D01*
X2965958Y-951484D01*
X2976372Y-956563D01*
X2986786Y-966978D01*
X2992120Y-977392D01*
X2997200Y-993139D01*
X2997200Y-1019047D01*
X2992120Y-1034542D01*
X2986786Y-1044955D01*
X2976372Y-1055370D01*
X2965958Y-1060450D01*
X2945129Y-1060450D01*
X2934970Y-1055370D01*
X2924556Y-1044955D01*
X2919222Y-1034542D01*
X2874518Y-951484D02*
G01*
X2817368Y-951484D01*
X2848609Y-993139D01*
X2833115Y-993139D01*
X2822702Y-998220D01*
X2817368Y-1003300D01*
X2812288Y-1019047D01*
X2812288Y-1029462D01*
X2817368Y-1044955D01*
X2827781Y-1055370D01*
X2843529Y-1060450D01*
X2859024Y-1060450D01*
X2874518Y-1055370D01*
X2879852Y-1050289D01*
X2884931Y-1039876D01*
X1792478Y-1016507D02*
G01*
X1787144Y-1026921D01*
X1776729Y-1037336D01*
X1766570Y-1042415D01*
X1745742Y-1042415D01*
X1735328Y-1037336D01*
X1724913Y-1026921D01*
X1719579Y-1016507D01*
X1714500Y-1000760D01*
X1714500Y-974852D01*
X1719579Y-959357D01*
X1724913Y-948944D01*
X1735328Y-938529D01*
X1745742Y-933450D01*
X1766570Y-933450D01*
X1776729Y-938529D01*
X1787144Y-948944D01*
X1792478Y-959357D01*
X1878584Y-1042415D02*
G01*
X1826768Y-969771D01*
X1904745Y-969771D01*
X1878584Y-1042415D02*
G01*
X1878584Y-933450D01*
X2933191Y-1789160D02*
G01*
X2922777Y-1783826D01*
X2912363Y-1773412D01*
X2907284Y-1763252D01*
X2907284Y-1742424D01*
X2912363Y-1732010D01*
X2922777Y-1721596D01*
X2933191Y-1716262D01*
X2948940Y-1711182D01*
X2974847Y-1711182D01*
X2990341Y-1716262D01*
X3000756Y-1721596D01*
X3011170Y-1732010D01*
X3016250Y-1742424D01*
X3016250Y-1763252D01*
X3011170Y-1773412D01*
X3000756Y-1783826D01*
X2990341Y-1789160D01*
X2907284Y-1885680D02*
G01*
X2907284Y-1833864D01*
X2954020Y-1828530D01*
X2948940Y-1833864D01*
X2943606Y-1849358D01*
X2943606Y-1864852D01*
X2948940Y-1880600D01*
X2959100Y-1891014D01*
X2974847Y-1896094D01*
X2985261Y-1896094D01*
X3000756Y-1891014D01*
X3011170Y-1880600D01*
X3016250Y-1864852D01*
X3016250Y-1849358D01*
X3011170Y-1833864D01*
X3006090Y-1828530D01*
X2995675Y-1823450D01*
X2475991Y-3138678D02*
G01*
X2465577Y-3133344D01*
X2455163Y-3122929D01*
X2450084Y-3112770D01*
X2450084Y-3091942D01*
X2455163Y-3081528D01*
X2465577Y-3071113D01*
X2475991Y-3065779D01*
X2491740Y-3060700D01*
X2517647Y-3060700D01*
X2533141Y-3065779D01*
X2543556Y-3071113D01*
X2553970Y-3081528D01*
X2559050Y-3091942D01*
X2559050Y-3112770D01*
X2553970Y-3122929D01*
X2543556Y-3133344D01*
X2533141Y-3138678D01*
X2465577Y-3235197D02*
G01*
X2455163Y-3230118D01*
X2450084Y-3214370D01*
X2450084Y-3204210D01*
X2455163Y-3188462D01*
X2470911Y-3178047D01*
X2496820Y-3172968D01*
X2522727Y-3172968D01*
X2543556Y-3178047D01*
X2553970Y-3188462D01*
X2559050Y-3204210D01*
X2559050Y-3209289D01*
X2553970Y-3224784D01*
X2543556Y-3235197D01*
X2528061Y-3240531D01*
X2522727Y-3240531D01*
X2507234Y-3235197D01*
X2496820Y-3224784D01*
X2491740Y-3209289D01*
X2491740Y-3204210D01*
X2496820Y-3188462D01*
X2507234Y-3178047D01*
X2522727Y-3172968D01*
X3151377Y-3531107D02*
G01*
X3146043Y-3541521D01*
X3135629Y-3551936D01*
X3125470Y-3557015D01*
X3104641Y-3557015D01*
X3094227Y-3551936D01*
X3083813Y-3541521D01*
X3078479Y-3531107D01*
X3073400Y-3515360D01*
X3073400Y-3489452D01*
X3078479Y-3473957D01*
X3083813Y-3463544D01*
X3094227Y-3453129D01*
X3104641Y-3448050D01*
X3125470Y-3448050D01*
X3135629Y-3453129D01*
X3146043Y-3463544D01*
X3151377Y-3473957D01*
X3258311Y-3557015D02*
G01*
X3206495Y-3448050D01*
X3185668Y-3557015D02*
G01*
X3258311Y-3557015D01*
X3151377Y-3277107D02*
G01*
X3146043Y-3287521D01*
X3135629Y-3297936D01*
X3125470Y-3303015D01*
X3104641Y-3303015D01*
X3094227Y-3297936D01*
X3083813Y-3287521D01*
X3078479Y-3277107D01*
X3073400Y-3261360D01*
X3073400Y-3235452D01*
X3078479Y-3219957D01*
X3083813Y-3209544D01*
X3094227Y-3199129D01*
X3104641Y-3194050D01*
X3125470Y-3194050D01*
X3135629Y-3199129D01*
X3146043Y-3209544D01*
X3151377Y-3219957D01*
X3211575Y-3303015D02*
G01*
X3196081Y-3297936D01*
X3190747Y-3287521D01*
X3190747Y-3277107D01*
X3196081Y-3266694D01*
X3206495Y-3261360D01*
X3227070Y-3256279D01*
X3242818Y-3251200D01*
X3253231Y-3240786D01*
X3258311Y-3230371D01*
X3258311Y-3214623D01*
X3253231Y-3204210D01*
X3247897Y-3199129D01*
X3232404Y-3194050D01*
X3211575Y-3194050D01*
X3196081Y-3199129D01*
X3190747Y-3204210D01*
X3185668Y-3214623D01*
X3185668Y-3230371D01*
X3190747Y-3240786D01*
X3201161Y-3251200D01*
X3216909Y-3256279D01*
X3237484Y-3261360D01*
X3247897Y-3266694D01*
X3253231Y-3277107D01*
X3253231Y-3287521D01*
X3247897Y-3297936D01*
X3232404Y-3303015D01*
X3211575Y-3303015D01*
X3305284Y-103101D02*
G01*
X3414250Y-103101D01*
X3305284Y-103101D02*
G01*
X3305284Y-139423D01*
X3310364Y-155171D01*
X3320778Y-165331D01*
X3331192Y-170665D01*
X3346940Y-175745D01*
X3372848Y-175745D01*
X3388342Y-170665D01*
X3398756Y-165331D01*
X3409170Y-155171D01*
X3414250Y-139423D01*
X3414250Y-103101D01*
X3305284Y-210035D02*
G01*
X3414250Y-282933D01*
X3305284Y-282933D02*
G01*
X3414250Y-210035D01*
X3305284Y-317223D02*
G01*
X3414250Y-317223D01*
X3414250Y-317223D02*
G01*
X3414250Y-379453D01*
X3326112Y-413743D02*
G01*
X3320778Y-424157D01*
X3305284Y-439651D01*
X3414250Y-439651D01*
X3086100Y-3811015D02*
G01*
X3086100Y-3702050D01*
X3086100Y-3811015D02*
G01*
X3132836Y-3811015D01*
X3148329Y-3805936D01*
X3153663Y-3800602D01*
X3158743Y-3790187D01*
X3158743Y-3779773D01*
X3153663Y-3769360D01*
X3148329Y-3764279D01*
X3132836Y-3759200D01*
X3086100Y-3759200D01*
X3122422Y-3759200D02*
G01*
X3158743Y-3702050D01*
X3193034Y-3790187D02*
G01*
X3203447Y-3795521D01*
X3219195Y-3811015D01*
X3219195Y-3702050D01*
X1385315Y-698500D02*
G01*
X1307337Y-698500D01*
X1291844Y-693420D01*
X1281429Y-683005D01*
X1276350Y-667257D01*
X1276350Y-656844D01*
X1281429Y-641350D01*
X1291844Y-630936D01*
X1307337Y-625855D01*
X1385315Y-625855D01*
X1359407Y-586231D02*
G01*
X1364487Y-586231D01*
X1374902Y-581152D01*
X1380236Y-575818D01*
X1385315Y-565404D01*
X1385315Y-544829D01*
X1380236Y-534415D01*
X1374902Y-529081D01*
X1364487Y-524002D01*
X1354073Y-524002D01*
X1343660Y-529081D01*
X1328165Y-539495D01*
X1276350Y-591565D01*
X1276350Y-518668D01*
X2299715Y-2908300D02*
G01*
X2221738Y-2908300D01*
X2206243Y-2903220D01*
X2195829Y-2892805D01*
X2190750Y-2877057D01*
X2190750Y-2866644D01*
X2195829Y-2851150D01*
X2206243Y-2840736D01*
X2221738Y-2835655D01*
X2299715Y-2835655D01*
X2299715Y-2790952D02*
G01*
X2299715Y-2733802D01*
X2258059Y-2764789D01*
X2258059Y-2749295D01*
X2252979Y-2738881D01*
X2247900Y-2733802D01*
X2232152Y-2728468D01*
X2221738Y-2728468D01*
X2206243Y-2733802D01*
X2195829Y-2744215D01*
X2190750Y-2759710D01*
X2190750Y-2775204D01*
X2195829Y-2790952D01*
X2200909Y-2796031D01*
X2211324Y-2801365D01*
D32*
X873549Y-2630792D02*
G01*
X919777Y-2436736D01*
X966005Y-2630792D02*
G01*
X919777Y-2436736D01*
X966005Y-2630792D02*
G01*
X1012233Y-2436736D01*
X1058207Y-2630792D02*
G01*
X1012233Y-2436736D01*
X1119167Y-2630792D02*
G01*
X1119167Y-2436736D01*
X1180127Y-2630792D02*
G01*
X1180127Y-2436736D01*
X1180127Y-2630792D02*
G01*
X1300269Y-2630792D01*
X1180127Y-2538336D02*
G01*
X1254041Y-2538336D01*
X1361229Y-2630792D02*
G01*
X1361229Y-2436736D01*
D30*
X1573784Y-1079500D02*
G01*
X1651762Y-1079500D01*
X1667255Y-1084579D01*
X1677670Y-1094994D01*
X1682750Y-1110742D01*
X1682750Y-1121155D01*
X1677670Y-1136650D01*
X1667255Y-1147063D01*
X1651762Y-1152144D01*
X1573784Y-1152144D01*
X1573784Y-1238504D02*
G01*
X1646428Y-1186434D01*
X1646428Y-1264412D01*
X1573784Y-1238504D02*
G01*
X1682750Y-1238504D01*
X2313940Y-1893315D02*
G01*
X2313940Y-1815337D01*
X2319020Y-1799844D01*
X2329434Y-1789429D01*
X2345181Y-1784350D01*
X2355595Y-1784350D01*
X2371090Y-1789429D01*
X2381504Y-1799844D01*
X2386584Y-1815337D01*
X2386584Y-1893315D01*
X2483358Y-1893315D02*
G01*
X2431288Y-1893315D01*
X2426208Y-1846579D01*
X2431288Y-1851660D01*
X2447036Y-1856994D01*
X2462529Y-1856994D01*
X2478024Y-1851660D01*
X2488438Y-1841500D01*
X2493772Y-1825752D01*
X2493772Y-1815337D01*
X2488438Y-1799844D01*
X2478024Y-1789429D01*
X2462529Y-1784350D01*
X2447036Y-1784350D01*
X2431288Y-1789429D01*
X2426208Y-1794510D01*
X2420874Y-1804923D01*
X1803400Y-265684D02*
G01*
X1803400Y-343662D01*
X1798320Y-359155D01*
X1787905Y-369570D01*
X1772157Y-374650D01*
X1761744Y-374650D01*
X1746250Y-369570D01*
X1735836Y-359155D01*
X1730755Y-343662D01*
X1730755Y-265684D01*
X1633981Y-281178D02*
G01*
X1639315Y-270763D01*
X1654810Y-265684D01*
X1665223Y-265684D01*
X1680718Y-270763D01*
X1691131Y-286512D01*
X1696465Y-312420D01*
X1696465Y-338328D01*
X1691131Y-359155D01*
X1680718Y-369570D01*
X1665223Y-374650D01*
X1659889Y-374650D01*
X1644395Y-369570D01*
X1633981Y-359155D01*
X1628902Y-343662D01*
X1628902Y-338328D01*
X1633981Y-322834D01*
X1644395Y-312420D01*
X1659889Y-307339D01*
X1665223Y-307339D01*
X1680718Y-312420D01*
X1691131Y-322834D01*
X1696465Y-338328D01*
X3305284Y-2215901D02*
G01*
X3414250Y-2215901D01*
X3305284Y-2215901D02*
G01*
X3305284Y-2252223D01*
X3310364Y-2267971D01*
X3320778Y-2278131D01*
X3331192Y-2283465D01*
X3346940Y-2288545D01*
X3372848Y-2288545D01*
X3388342Y-2283465D01*
X3398756Y-2278131D01*
X3409170Y-2267971D01*
X3414250Y-2252223D01*
X3414250Y-2215901D01*
X3305284Y-2322835D02*
G01*
X3414250Y-2395733D01*
X3305284Y-2395733D02*
G01*
X3414250Y-2322835D01*
X3305284Y-2430023D02*
G01*
X3414250Y-2430023D01*
X3414250Y-2430023D02*
G01*
X3414250Y-2492253D01*
X3331192Y-2531877D02*
G01*
X3326112Y-2531877D01*
X3315698Y-2536957D01*
X3310364Y-2542291D01*
X3305284Y-2552451D01*
X3305284Y-2573279D01*
X3310364Y-2583693D01*
X3315698Y-2589027D01*
X3326112Y-2594107D01*
X3336526Y-2594107D01*
X3346940Y-2589027D01*
X3362434Y-2578613D01*
X3414250Y-2526543D01*
X3414250Y-2599441D01*
D10*
X939800Y-1485900D02*
G01*
X754989Y-1485900D01*
X754989Y-1231900D01*
X939800Y-1231900D01*
X1092200Y-1231900D02*
G01*
X1278001Y-1231900D01*
X1278001Y-1485900D01*
X1092200Y-1485900D01*
X228600Y-533400D02*
G01*
X228600Y-348589D01*
X482600Y-348589D01*
X482600Y-533400D01*
X482600Y-685800D02*
G01*
X482600Y-871601D01*
X228600Y-871601D01*
X228600Y-685800D01*
D27*
X2484526Y-1132179D02*
G01*
X2352522Y-1132179D01*
X2352522Y-925169D01*
X2484526Y-925169D01*
X2597734Y-1132179D02*
G01*
X2729738Y-1132179D01*
X2729738Y-925169D01*
X2597734Y-925169D01*
X2189073Y-925220D02*
G01*
X2321077Y-925220D01*
X2321077Y-1132230D01*
X2189073Y-1132230D01*
X2075865Y-925220D02*
G01*
X1943861Y-925220D01*
X1943861Y-1132230D01*
X2075865Y-1132230D01*
X3049879Y-1538056D02*
G01*
X3049879Y-1670060D01*
X2842869Y-1670060D01*
X2842869Y-1538056D01*
X3049879Y-1424848D02*
G01*
X3049879Y-1292844D01*
X2842869Y-1292844D01*
X2842869Y-1424848D01*
X2618079Y-3535273D02*
G01*
X2618079Y-3667277D01*
X2411069Y-3667277D01*
X2411069Y-3535273D01*
X2618079Y-3422065D02*
G01*
X2618079Y-3290062D01*
X2411069Y-3290062D01*
X2411069Y-3422065D01*
X2900273Y-3401720D02*
G01*
X3032277Y-3401720D01*
X3032277Y-3608730D01*
X2900273Y-3608730D01*
X2787065Y-3401720D02*
G01*
X2655061Y-3401720D01*
X2655061Y-3608730D01*
X2787065Y-3608730D01*
X2900273Y-3160420D02*
G01*
X3032277Y-3160420D01*
X3032277Y-3367430D01*
X2900273Y-3367430D01*
X2787065Y-3160420D02*
G01*
X2655061Y-3160420D01*
X2655061Y-3367430D01*
X2787065Y-3367430D01*
D10*
X3455004Y-80002D02*
G01*
X3455001Y-1319999D01*
X3945003Y-80002D02*
G01*
X3455001Y-80002D01*
X3945003Y-1319999D02*
G01*
X3945000Y-80002D01*
X3455004Y-1319999D02*
G01*
X3945003Y-1319999D01*
X3454890Y-230101D02*
G01*
X3605004Y-79987D01*
D27*
X2789300Y-3850004D02*
G01*
X2657297Y-3850004D01*
X2657297Y-3642995D01*
X2789300Y-3642995D01*
X2902508Y-3850004D02*
G01*
X3034512Y-3850004D01*
X3034512Y-3642995D01*
X2902508Y-3642995D01*
D30*
X1221620Y-439757D02*
G01*
X556379Y-439757D01*
X556379Y-734037D01*
X1221620Y-734037D01*
X1221620Y-439757D01*
D10*
X221112Y-3770693D02*
G01*
X2141123Y-3770693D01*
X2141123Y-1970697D01*
X221112Y-1970697D01*
X221112Y-3770693D01*
X1532900Y-1315499D02*
G01*
X1692899Y-1315499D01*
X1532900Y-1605503D02*
G01*
X1692899Y-1605503D01*
X1532900Y-1416309D02*
G01*
X1532900Y-1504690D01*
X2164079Y-1701800D02*
G01*
X2164079Y-1219200D01*
X2479040Y-1219200D01*
X2479040Y-1701800D01*
X2479040Y-1701800D02*
G01*
X2385059Y-1701800D01*
X2258059Y-1701800D02*
G01*
X2164079Y-1701800D01*
D27*
X2836799Y-775385D02*
G01*
X2836799Y-25400D01*
X1836801Y-25400D01*
X1836801Y-775385D01*
D10*
X3455004Y-1380002D02*
G01*
X3455001Y-2619999D01*
X3945003Y-1380002D02*
G01*
X3455001Y-1380002D01*
X3945003Y-2619999D02*
G01*
X3945000Y-1380002D01*
X3455004Y-2619999D02*
G01*
X3945003Y-2619999D01*
X3454890Y-1530101D02*
G01*
X3605004Y-1379987D01*
G75*
G01*
X2385060Y-1701800D02*
G03*
X2258060Y-1701800I-63500J0D01*
D31*
G75*
G01
X2172335Y-3897706D02*
G03X2172335Y-3897706I-23241J0D01*
D10*
G75*
G01
X1967611Y-2273198D02*
G03X1967611Y-2273198I-150012J0D01*
G75*
G01
X1888439Y-2273198D02*
G03X1888439Y-2273198I-70841J0D01*
G75*
G01
X1754302Y-1301521D02*
G03X1754302Y-1301521I-6401J0D01*
G75*
G01
X2124710Y-1724660D02*
G03X2124710Y-1724660I-19050J0D01*
M02*
