G04 Layer: BottomPasteMaskLayer*
G04 EasyEDA v6.5.3, 2022-04-04 11:44:29*
G04 441a04c8791b4462941eed85b5e579c0,ea473c994f494bc6b3a27bf06e4933c6,10*
G04 Gerber Generator version 0.2*
G04 Scale: 100 percent, Rotated: No, Reflected: No *
G04 Dimensions in millimeters *
G04 leading zeros omitted , absolute positions ,4 integer and 5 decimal *
%FSLAX45Y45*%
%MOMM*%

%ADD17C,0.7000*%

%LPD*%
D17*
X1946841Y-1651000D02*
G01*
X2096841Y-1651000D01*
X1946841Y-1524000D02*
G01*
X2096841Y-1524000D01*
X1946841Y-1397000D02*
G01*
X2096841Y-1397000D01*
X1946841Y-1270000D02*
G01*
X2096841Y-1270000D01*
X2551358Y-1651000D02*
G01*
X2701361Y-1651000D01*
X2551358Y-1524000D02*
G01*
X2701361Y-1524000D01*
X2551358Y-1397000D02*
G01*
X2701361Y-1397000D01*
X2551358Y-1270000D02*
G01*
X2701361Y-1270000D01*
G36*
X775990Y-1458899D02*
G01*
X936010Y-1458899D01*
X936010Y-1258900D01*
X775990Y-1258900D01*
G37*
G36*
X1095989Y-1458899D02*
G01*
X1256009Y-1458899D01*
X1256009Y-1258900D01*
X1095989Y-1258900D01*
G37*
G36*
X255600Y-369590D02*
G01*
X255600Y-529610D01*
X455599Y-529610D01*
X455599Y-369590D01*
G37*
G36*
X255600Y-689589D02*
G01*
X255600Y-849609D01*
X455599Y-849609D01*
X455599Y-689589D01*
G37*
G36*
X2699600Y-956200D02*
G01*
X2583599Y-956200D01*
X2583599Y-1101199D01*
X2699600Y-1101199D01*
G37*
G36*
X2496400Y-956200D02*
G01*
X2380399Y-956200D01*
X2380399Y-1101199D01*
X2496400Y-1101199D01*
G37*
G36*
X1973999Y-1101199D02*
G01*
X2090000Y-1101199D01*
X2090000Y-956200D01*
X1973999Y-956200D01*
G37*
G36*
X2177199Y-1101199D02*
G01*
X2293200Y-1101199D01*
X2293200Y-956200D01*
X2177199Y-956200D01*
G37*
G36*
X2873900Y-1322981D02*
G01*
X2873900Y-1438983D01*
X3018899Y-1438983D01*
X3018899Y-1322981D01*
G37*
G36*
X2873900Y-1526181D02*
G01*
X2873900Y-1642183D01*
X3018899Y-1642183D01*
X3018899Y-1526181D01*
G37*
G36*
X2442100Y-3320199D02*
G01*
X2442100Y-3436200D01*
X2587099Y-3436200D01*
X2587099Y-3320199D01*
G37*
G36*
X2442100Y-3523399D02*
G01*
X2442100Y-3639400D01*
X2587099Y-3639400D01*
X2587099Y-3523399D01*
G37*
G36*
X2685199Y-3577699D02*
G01*
X2801200Y-3577699D01*
X2801200Y-3432700D01*
X2685199Y-3432700D01*
G37*
G36*
X2888399Y-3577699D02*
G01*
X3004400Y-3577699D01*
X3004400Y-3432700D01*
X2888399Y-3432700D01*
G37*
G36*
X2685199Y-3336399D02*
G01*
X2801200Y-3336399D01*
X2801200Y-3191400D01*
X2685199Y-3191400D01*
G37*
G36*
X2888399Y-3336399D02*
G01*
X3004400Y-3336399D01*
X3004400Y-3191400D01*
X2888399Y-3191400D01*
G37*
G36*
X3004388Y-3673017D02*
G01*
X2888386Y-3673017D01*
X2888386Y-3820007D01*
X3004388Y-3820007D01*
G37*
G36*
X2801188Y-3673017D02*
G01*
X2685186Y-3673017D01*
X2685186Y-3820007D01*
X2801188Y-3820007D01*
G37*
G36*
X1063995Y-768893D02*
G01*
X1063995Y-1018893D01*
X1173998Y-1018893D01*
X1173998Y-768893D01*
G37*
G36*
X833998Y-768893D02*
G01*
X833998Y-1018893D01*
X944001Y-1018893D01*
X944001Y-768893D01*
G37*
G36*
X604001Y-768893D02*
G01*
X604001Y-1018893D01*
X714004Y-1018893D01*
X714004Y-768893D01*
G37*
G36*
X709000Y-416897D02*
G01*
X1068999Y-416897D01*
X1068999Y-182897D01*
X709000Y-182897D01*
G37*
G36*
X704598Y-3875196D02*
G01*
X799599Y-3875196D01*
X799599Y-3665194D01*
X704598Y-3665194D01*
G37*
G36*
X831598Y-3875196D02*
G01*
X926599Y-3875196D01*
X926599Y-3665194D01*
X831598Y-3665194D01*
G37*
G36*
X958598Y-3875196D02*
G01*
X1053599Y-3875196D01*
X1053599Y-3665194D01*
X958598Y-3665194D01*
G37*
G36*
X1085598Y-3875196D02*
G01*
X1180599Y-3875196D01*
X1180599Y-3665194D01*
X1085598Y-3665194D01*
G37*
G36*
X1212598Y-3875196D02*
G01*
X1307599Y-3875196D01*
X1307599Y-3665194D01*
X1212598Y-3665194D01*
G37*
G36*
X1339598Y-3875196D02*
G01*
X1434599Y-3875196D01*
X1434599Y-3665194D01*
X1339598Y-3665194D01*
G37*
G36*
X1466598Y-3875196D02*
G01*
X1561599Y-3875196D01*
X1561599Y-3665194D01*
X1466598Y-3665194D01*
G37*
G36*
X1593598Y-3875196D02*
G01*
X1688599Y-3875196D01*
X1688599Y-3665194D01*
X1593598Y-3665194D01*
G37*
G36*
X1720598Y-3875196D02*
G01*
X1815599Y-3875196D01*
X1815599Y-3665194D01*
X1720598Y-3665194D01*
G37*
G36*
X1847598Y-3875196D02*
G01*
X1942599Y-3875196D01*
X1942599Y-3665194D01*
X1847598Y-3665194D01*
G37*
G36*
X1974598Y-3875196D02*
G01*
X2069599Y-3875196D01*
X2069599Y-3665194D01*
X1974598Y-3665194D01*
G37*
G36*
X108099Y-3362187D02*
G01*
X318101Y-3362187D01*
X318101Y-3267186D01*
X108099Y-3267186D01*
G37*
G36*
X108099Y-3489187D02*
G01*
X318101Y-3489187D01*
X318101Y-3394186D01*
X108099Y-3394186D01*
G37*
G36*
X323598Y-3875196D02*
G01*
X418599Y-3875196D01*
X418599Y-3665194D01*
X323598Y-3665194D01*
G37*
G36*
X450598Y-3875196D02*
G01*
X545599Y-3875196D01*
X545599Y-3665194D01*
X450598Y-3665194D01*
G37*
G36*
X577598Y-3875196D02*
G01*
X672599Y-3875196D01*
X672599Y-3665194D01*
X577598Y-3665194D01*
G37*
G36*
X108099Y-3235187D02*
G01*
X318101Y-3235187D01*
X318101Y-3140186D01*
X108099Y-3140186D01*
G37*
G36*
X108099Y-3108187D02*
G01*
X318101Y-3108187D01*
X318101Y-3013186D01*
X108099Y-3013186D01*
G37*
G36*
X108099Y-2981187D02*
G01*
X318101Y-2981187D01*
X318101Y-2886186D01*
X108099Y-2886186D01*
G37*
G36*
X108099Y-2854187D02*
G01*
X318101Y-2854187D01*
X318101Y-2759186D01*
X108099Y-2759186D01*
G37*
G36*
X108099Y-2727187D02*
G01*
X318101Y-2727187D01*
X318101Y-2632186D01*
X108099Y-2632186D01*
G37*
G36*
X108099Y-2600187D02*
G01*
X318101Y-2600187D01*
X318101Y-2505186D01*
X108099Y-2505186D01*
G37*
G36*
X108099Y-2473187D02*
G01*
X318101Y-2473187D01*
X318101Y-2378186D01*
X108099Y-2378186D01*
G37*
G36*
X108099Y-2346187D02*
G01*
X318101Y-2346187D01*
X318101Y-2251186D01*
X108099Y-2251186D01*
G37*
G36*
X323598Y-2075205D02*
G01*
X418599Y-2075205D01*
X418599Y-1865203D01*
X323598Y-1865203D01*
G37*
G36*
X450598Y-2075205D02*
G01*
X545599Y-2075205D01*
X545599Y-1865203D01*
X450598Y-1865203D01*
G37*
G36*
X577598Y-2075205D02*
G01*
X672599Y-2075205D01*
X672599Y-1865203D01*
X577598Y-1865203D01*
G37*
G36*
X704598Y-2075205D02*
G01*
X799599Y-2075205D01*
X799599Y-1865203D01*
X704598Y-1865203D01*
G37*
G36*
X831598Y-2075205D02*
G01*
X926599Y-2075205D01*
X926599Y-1865203D01*
X831598Y-1865203D01*
G37*
G36*
X958598Y-2075205D02*
G01*
X1053599Y-2075205D01*
X1053599Y-1865203D01*
X958598Y-1865203D01*
G37*
G36*
X1085598Y-2075205D02*
G01*
X1180599Y-2075205D01*
X1180599Y-1865203D01*
X1085598Y-1865203D01*
G37*
G36*
X1212598Y-2075205D02*
G01*
X1307599Y-2075205D01*
X1307599Y-1865203D01*
X1212598Y-1865203D01*
G37*
G36*
X1339598Y-2075205D02*
G01*
X1434599Y-2075205D01*
X1434599Y-1865203D01*
X1339598Y-1865203D01*
G37*
G36*
X1466598Y-2075205D02*
G01*
X1561599Y-2075205D01*
X1561599Y-1865203D01*
X1466598Y-1865203D01*
G37*
G36*
X1593598Y-2075205D02*
G01*
X1688599Y-2075205D01*
X1688599Y-1865203D01*
X1593598Y-1865203D01*
G37*
G36*
X1720598Y-2075205D02*
G01*
X1815599Y-2075205D01*
X1815599Y-1865203D01*
X1720598Y-1865203D01*
G37*
G36*
X1847598Y-2075205D02*
G01*
X1942599Y-2075205D01*
X1942599Y-1865203D01*
X1847598Y-1865203D01*
G37*
G36*
X1974598Y-2075205D02*
G01*
X2069599Y-2075205D01*
X2069599Y-1865203D01*
X1974598Y-1865203D01*
G37*
G36*
X1059621Y-3211184D02*
G01*
X1439621Y-3211184D01*
X1439621Y-2831185D01*
X1059621Y-2831185D01*
G37*
G36*
X1702899Y-1395498D02*
G01*
X1802899Y-1395498D01*
X1802899Y-1335498D01*
X1702899Y-1335498D01*
G37*
G36*
X1702899Y-1490499D02*
G01*
X1802899Y-1490499D01*
X1802899Y-1430500D01*
X1702899Y-1430500D01*
G37*
G36*
X1702899Y-1585501D02*
G01*
X1802899Y-1585501D01*
X1802899Y-1525501D01*
X1702899Y-1525501D01*
G37*
G36*
X1522900Y-1525501D02*
G01*
X1422900Y-1525501D01*
X1422900Y-1585501D01*
X1522900Y-1585501D01*
G37*
G36*
X1522900Y-1335498D02*
G01*
X1422900Y-1335498D01*
X1422900Y-1395498D01*
X1522900Y-1395498D01*
G37*
M02*
